<?xml version="1.0" encoding="UTF-8" standalone="no"?>
<!-- Created with Inkscape (http://www.inkscape.org/) -->

<svg
   width="48"
   height="48"
   viewBox="0 0 12.7 12.7"
   version="1.1"
   id="svg1"
   inkscape:version="1.4.2 (f4327f4, 2025-05-13)"
   sodipodi:docname="plugin-icon-white.svg"
   xmlns:inkscape="http://www.inkscape.org/namespaces/inkscape"
   xmlns:sodipodi="http://sodipodi.sourceforge.net/DTD/sodipodi-0.dtd"
   xmlns="http://www.w3.org/2000/svg"
   xmlns:svg="http://www.w3.org/2000/svg">
  <sodipodi:namedview
     id="namedview1"
     pagecolor="#505050"
     bordercolor="#ffffff"
     borderopacity="1"
     inkscape:showpageshadow="0"
     inkscape:pageopacity="0"
     inkscape:pagecheckerboard="1"
     inkscape:deskcolor="#505050"
     inkscape:document-units="mm"
     inkscape:zoom="12.863887"
     inkscape:cx="26.275107"
     inkscape:cy="26.547187"
     inkscape:window-width="2400"
     inkscape:window-height="1520"
     inkscape:window-x="-11"
     inkscape:window-y="35"
     inkscape:window-maximized="1"
     inkscape:current-layer="g11" />
  <defs
     id="defs1" />
  <g
     inkscape:label="Layer 1"
     inkscape:groupmode="layer"
     id="layer1"
     style="display:none;opacity:0"
     sodipodi:insensitive="true">
    <path
       style="fill:#9ceeee;fill-opacity:1;stroke:none;stroke-width:0.529167;stroke-dasharray:none;stroke-opacity:1"
       d="M 0.47660704,0.92696208 10.613708,5.0414284 c 0,0 0.728806,0.2933255 1.253575,-0.9331022 0.52477,-1.2264273 0.314493,-2.6111615 0.314493,-2.6111615 0,0 -3.4580081,0.8385396 -5.0647921,0.3144774 C 5.5102002,1.2875798 2.7194437,0.03226371 1.8359333,0.3169021 0.95242281,0.60154046 0.47660704,0.92696208 0.47660704,0.92696208 Z"
       id="path2" />
    <path
       style="fill:#9ceeee;fill-opacity:1;stroke:none;stroke-width:0.529167;stroke-dasharray:none;stroke-opacity:1"
       d="M 0.35428082,1.24224 10.613708,5.0414284 c 0,0 0.735926,0.274976 0.296213,1.5344015 -0.439717,1.2594264 -1.5289052,2.1399812 -1.5289052,2.1399812 0,0 -1.9875609,-2.9513667 -3.5273361,-3.6481398 C 4.3139008,4.3709009 1.4067812,3.4154969 0.94644292,2.6094585 0.48610418,1.8034194 0.35428082,1.24224 0.35428082,1.24224 Z"
       id="path2-8" />
    <path
       style="fill:#9ceeee;fill-opacity:1;stroke:none;stroke-width:0.529167;stroke-dasharray:none;stroke-opacity:1"
       d="m 11.227942,3.4736086 c -0.07153,0.00855 -1.042272,8.2744844 -1.042272,8.2744844 0,0 -0.2235627,0.800183 -0.7825473,0.736413 C 8.8441382,12.420741 8.8147789,11.568184 8.8147789,11.568184 L 9.9372262,3.2361326 Z"
       id="path3" />
    <path
       style="fill:#9ceeee;fill-opacity:1;stroke:none;stroke-width:0.529167;stroke-dasharray:none;stroke-opacity:1"
       d="m 12.042897,3.6033456 c -0.0638,-0.033425 -5.5415672,6.2325322 -5.5415672,6.2325322 0,0 -0.6371199,0.5332462 -1.0619173,0.1643642 C 5.0146133,9.6313518 5.4728335,8.9118072 5.4728335,8.9118072 L 11.113081,2.6771803 Z"
       id="path3-1" />
  </g>
  <g
     inkscape:label="Layer 1 copy"
     inkscape:groupmode="layer"
     id="g11">
    <path
       id="path8"
       style="fill:#ffffff;fill-opacity:1;stroke:none;stroke-width:1.4945;stroke-dasharray:none;stroke-opacity:1;paint-order:stroke markers fill"
       d="M 2.2934154,0 C 2.1227907,-0.0084352 1.9771342,0.00330582 1.8622362,0.04032223 0.94305209,0.33645349 0.44773228,0.67526301 0.44773228,0.67526301 L 9.7465773,4.4494242 9.7170077,4.4827572 0.32085166,1.0032171 c 0,0 0.13666021,0.5839838 0.61558615,1.4225685 C 1.4153632,3.2643695 4.4403571,4.2583866 6.042308,4.9832906 6.6400119,5.2537613 7.3023969,5.8507297 7.8982061,6.492955 L 5.6460748,8.982181 c 0,0 -0.4768973,0.7490012 -0.034946,1.132786 0.4419495,0.383776 1.1048291,-0.1709662 1.1048291,-0.1709662 0,0 0.9573001,-1.0957483 2.0919176,-2.386001 C 9.134791,7.969677 9.3974493,8.3306842 9.553568,8.551002 l -0.430641,3.195133 c 0,0 0.030268,0.886878 0.6118226,0.953217 0.5815544,0.06635 0.8139724,-0.766122 0.8139724,-0.766122 0,0 0.31101,-2.6473034 0.600531,-5.0058701 0.05642,-0.1208739 0.108181,-0.2462502 0.153224,-0.3752655 0.211257,-0.6050814 0.161871,-0.9918459 0.04731,-1.2327852 0.01558,-0.1227894 0.03038,-0.2419519 0.04517,-0.3569862 0.264231,-0.068524 0.614082,-0.3004205 0.903756,-0.9774109 0.07421,-0.1734245 0.133837,-0.3497855 0.182257,-0.5252644 0.307827,-1.1155824 0.144621,-2.1913791 0.144621,-2.1913791 0,0 -3.5976466,0.872639 -5.269308,0.3274166 C 5.8935717,1.1186156 3.4877881,0.05904636 2.2934154,0 Z" />
  </g>
</svg>
